<?xml version="1.0" encoding="iso-8859-1"?>
<!-- Generator: Adobe Illustrator 19.0.0, SVG Export Plug-In . SVG Version: 6.00 Build 0)  -->
<svg xmlns="http://www.w3.org/2000/svg" xmlns:xlink="http://www.w3.org/1999/xlink" version="1.1" id="Capa_1" x="0px" y="0px" viewBox="0 0 512 512" style="enable-background:new 0 0 512 512;" xml:space="preserve" width="512px" height="512px">
<g>
	<g>
		<path d="M239.98,145.439h-16.02c-4.2,0-7.604,3.404-7.604,7.604s3.405,7.604,7.604,7.604h16.02c4.2,0,7.604-3.404,7.604-7.604    S244.181,145.439,239.98,145.439z" fill="#bb1f34"/>
	</g>
</g>
<g>
	<g>
		<path d="M288.039,145.439h-16.02c-4.2,0-7.604,3.404-7.604,7.604s3.404,7.604,7.604,7.604h16.02c4.2,0,7.604-3.404,7.604-7.604    S292.24,145.439,288.039,145.439z" fill="#bb1f34"/>
	</g>
</g>
<g>
	<g>
		<path d="M482.558,342.161h-86.939V279.89c0-43.94-23.942-84.248-61.798-105.488c16.636-18.527,26.774-43.004,26.774-69.806    c0-22.839-7.442-44.919-21.099-63.005c-2.648-3.507-7.759-3.949-11.05-1.037l-0.003,0.002c-2.95,2.611-3.449,7.066-1.077,10.211    c9.409,12.468,15.351,27.159,17.3,42.62c-61.964-10.334-104.09,14.913-138.274,35.401c-10.33,6.19-20.184,12.077-29.88,16.675    c-6.326-12.255-9.903-26.151-9.903-40.867c0-49.289,40.099-89.388,89.388-89.388c17.004,0,33.28,4.693,47.483,13.635    c3.388,2.133,7.834,1.37,10.226-1.841c2.627-3.526,1.75-8.58-1.967-10.93C295.077,5.533,275.965,0,255.999,0    c-15.856,0-30.895,3.553-44.374,9.894c-12.257-8.322-33.303-11.192-51.918-6.575c-20.848,5.17-35.586,18.566-41.498,37.722    c-9.109,29.519-39.464,35.266-40.725,35.491c-3.495,0.6-6.112,3.534-6.307,7.076c-0.196,3.54,2.081,6.746,5.489,7.727    c0.954,0.275,10.98,3.051,25.466,3.051c14.427-0.001,33.278-2.758,51.979-13.482c-1.77,7.616-2.708,15.548-2.708,23.694    c0,26.799,10.136,51.273,26.769,69.801c-10.003,5.612-19.039,12.547-26.913,20.54c-0.299,0.261-0.579,0.547-0.836,0.858    c-21.417,22.173-34.041,52.18-34.041,84.096v62.271H29.443c-4.199,0-7.604,3.405-7.604,7.604v33.931    c0,11.409,4.286,22.51,12.346,30.585c7.991,8.006,18.62,12.416,29.922,12.416H80.28c-8.847,9.076-14.308,21.469-14.288,35.119    C66.028,489.422,89.526,512,117.132,512h124.415h28.908h51.508c4.199,0,7.604-3.405,7.604-7.604s-3.405-7.604-7.604-7.604h-15.539    c8.83-9.061,14.285-21.425,14.285-35.045v-35.045h74.34c19.201,0,35.374,15.148,35.746,34.347    c0.187,9.609-3.477,18.68-10.267,25.47c-6.625,6.625-15.423,10.273-24.772,10.273h-38.306c-4.199,0-7.604,3.405-7.604,7.604    s3.405,7.604,7.604,7.604h38.306c13.411,0,26.028-5.23,35.526-14.727c9.497-9.498,14.727-22.115,14.727-35.526    c0-13.623-5.457-25.989-14.289-35.049h16.173c11.288,0,21.903-4.398,29.893-12.385c7.98-7.981,12.375-18.593,12.375-29.883    v-34.664C490.162,345.566,486.757,342.161,482.558,342.161z M109.559,78.813c-0.27,0.021-0.538,0.041-0.806,0.06    c9.599-6.94,19.094-17.486,23.988-33.347c5.484-17.768,19.681-24.733,30.626-27.445c11.668-2.895,23.903-1.961,32.544,0.951    c-12.963,9.132-23.766,21.13-31.481,35.065C149.351,68.823,130.9,77.146,109.559,78.813z M214.211,141.832    c34.248-20.526,72.921-43.689,131.069-32.895c-2.272,47.281-41.448,85.048-89.282,85.048c-29.097,0-54.988-13.977-71.32-35.566    C194.445,153.663,204.112,147.884,214.211,141.832z M306.812,195.992c-7.655,20.691-27.484,35.233-50.812,35.233    c-23.327,0-43.156-14.541-50.812-35.231c15.054,8.402,32.381,13.199,50.811,13.199    C274.429,209.192,291.758,204.394,306.812,195.992z M187.266,186.745c4.704,33.99,33.639,59.686,68.735,59.686    s64.03-25.696,68.735-59.686c7.017,3.775,13.51,8.285,19.39,13.416c-2.714,2.65-5.83,6.263-8.907,11.063    c-10.162,15.857-15.314,37.018-15.314,62.896V321.7c-41.172-15.156-86.637-15.157-127.807,0v-47.58    c0-43.128-14.655-64.542-24.245-73.939C173.739,195.042,180.239,190.525,187.266,186.745z M64.106,411.49    c-7.225-0.001-14.023-2.818-19.137-7.932c-5.109-5.108-7.921-11.901-7.921-19.128v-27.06h40.269    c5.87,0,10.646,4.775,10.646,10.645v7.915c0,4.2,3.404,7.604,7.604,7.604s7.604-3.404,7.604-7.604v-7.915    c0-3.794-0.828-7.396-2.302-10.645h23.119h15.305c4.2,0,7.604-3.404,7.604-7.604s-3.404-7.604-7.604-7.604h-7.701v-62.271    c0-25.752,9.4-50.082,25.569-68.919c6.956,6.81,19.731,24.577,19.731,63.15v106.05c0,17.268-14.049,31.318-31.318,31.318H64.106z     M195.138,496.792h-78.895c-19.323,0-35.045-15.722-35.045-35.045c0-19.324,15.722-35.045,35.045-35.045h78.895V496.792z     M305.5,461.747c0,19.324-15.722,35.045-35.045,35.045h-28.908h-31.2v-70.091h11.024h20.176h32.139H305.5V461.747z     M228.976,411.493v-22.299h7.205c13.862,0,25.55,9.482,28.923,22.299h-23.556H228.976z M313.104,411.493h-32.468    c-3.627-21.265-22.175-37.507-44.457-37.507h-14.808c-4.2,0-7.604,3.404-7.604,7.604v29.903h-33.823    c7.545-8.273,12.153-19.269,12.153-31.322v-42.175c40.883-16.624,86.923-16.624,127.807,0v42.175    c0,12.053,4.608,23.048,12.154,31.322H313.104z M467.033,403.557c-5.116,5.115-11.913,7.931-19.14,7.931h-81.464    c-17.269,0-31.319-14.049-31.319-31.318v-106.05c0-38.915,12.666-56.461,19.69-63.199c16.191,18.844,25.61,43.195,25.61,68.967    v62.271h-7.702c-4.2,0-7.604,3.404-7.604,7.604s3.404,7.604,7.604,7.604h15.306h23.118c-1.474,3.248-2.302,6.851-2.302,10.644    v7.915c0,4.2,3.404,7.604,7.604,7.604s7.604-3.404,7.604-7.604v-7.915c0-5.869,4.775-10.644,10.644-10.644h40.271v27.062h0.001    C474.954,391.657,472.142,398.45,467.033,403.557z" fill="#bb1f34"/>
	</g>
</g>
<g>
</g>
<g>
</g>
<g>
</g>
<g>
</g>
<g>
</g>
<g>
</g>
<g>
</g>
<g>
</g>
<g>
</g>
<g>
</g>
<g>
</g>
<g>
</g>
<g>
</g>
<g>
</g>
<g>
</g>
</svg>
